<?xml version="1.0" standalone="no"?>
<!DOCTYPE svg PUBLIC "-//W3C//DTD SVG 20010904//EN"
 "http://www.w3.org/TR/2001/REC-SVG-20010904/DTD/svg10.dtd">
<svg version="1.0" xmlns="http://www.w3.org/2000/svg"
 width="787.000000pt" height="1280.000000pt" viewBox="0 0 787.000000 1280.000000"
 preserveAspectRatio="xMidYMid meet">
<metadata>
Created by potrace 1.15, written by Peter Selinger 2001-2017
</metadata>
<g transform="translate(0.000000,1280.000000) scale(0.100000,-0.100000)"
fill="#000000" stroke="none">
<path d="M3087 12333 c-4 -3 -7 -12 -7 -20 0 -17 -40 -63 -56 -63 -6 0 -14 14
-17 30 -8 40 -20 38 -36 -5 -7 -22 -24 -41 -43 -51 l-31 -16 6 46 c10 71 -9
64 -50 -19 -48 -97 -67 -100 -57 -8 6 59 5 66 -8 56 -8 -7 -24 -44 -37 -83
-13 -38 -25 -70 -27 -70 -8 0 -27 55 -33 95 -7 39 -7 40 -20 16 -7 -13 -15
-59 -18 -101 -6 -82 -18 -95 -42 -44 -16 36 -34 19 -28 -26 5 -43 -7 -76 -19
-47 -3 9 -13 17 -21 17 -12 0 -14 -9 -11 -40 2 -29 0 -39 -9 -36 -16 7 -21
-13 -12 -53 4 -18 3 -45 -2 -59 -8 -20 -3 -38 21 -90 32 -70 36 -88 19 -94
-21 -7 14 -79 56 -116 22 -19 30 -29 18 -23 -19 10 -22 9 -16 -5 5 -13 2 -15
-15 -9 -25 7 -29 -7 -8 -24 8 -6 42 -25 76 -42 50 -24 60 -32 50 -43 -8 -10
-8 -16 0 -21 20 -12 -2 -26 -32 -20 -22 5 -46 -1 -94 -25 -76 -37 -114 -91
-122 -173 -4 -46 -3 -50 14 -42 10 5 93 10 184 11 126 2 173 -1 197 -12 42
-19 51 -49 24 -83 -188 -232 -236 -341 -248 -564 -5 -95 -3 -129 11 -180 10
-34 22 -69 26 -78 5 -9 11 -38 15 -65 21 -154 160 -440 269 -552 28 -29 79
-70 114 -90 147 -86 139 -79 146 -123 8 -51 39 -113 67 -132 24 -17 77 -7 94
17 6 8 16 23 23 33 11 17 12 17 11 -2 -1 -11 -1 -51 0 -88 1 -63 3 -70 36
-102 50 -50 70 -46 102 20 15 30 31 55 35 55 4 0 8 -19 8 -42 0 -43 40 -172
59 -191 6 -6 22 -5 44 2 31 11 38 19 56 73 12 34 21 77 21 95 0 37 4 39 53 18
20 -8 60 -15 89 -15 63 0 73 -5 93 -50 16 -37 25 -52 62 -110 13 -20 30 -60
39 -90 11 -37 29 -67 57 -95 23 -23 50 -51 59 -63 43 -53 72 -8 93 142 15 108
22 136 34 136 10 0 231 -221 231 -231 0 -15 206 -171 286 -217 46 -26 84 -52
84 -58 0 -17 137 -332 162 -372 48 -78 84 -121 103 -124 26 -4 62 -60 81 -126
17 -57 23 -253 11 -327 -4 -22 -9 -98 -12 -170 -2 -71 -11 -175 -19 -230 -8
-55 -20 -154 -26 -220 -6 -66 -15 -155 -20 -198 -15 -126 -31 -389 -35 -573
-2 -95 -6 -257 -9 -360 -4 -104 -3 -205 2 -224 8 -36 29 -46 43 -20 7 14 62
190 92 295 l14 50 1 -124 c3 -215 40 -266 82 -112 6 23 15 41 20 41 13 0 13
-16 -4 -107 -18 -94 -34 -215 -46 -346 -6 -55 -12 -103 -15 -108 -6 -9 -17
-75 -17 -99 0 -8 -4 -40 -10 -70 -6 -30 -12 -68 -14 -85 -1 -16 -7 -84 -13
-150 -6 -66 -16 -180 -21 -254 -5 -73 -14 -150 -20 -170 -19 -72 -69 -572 -85
-851 -4 -63 -8 -126 -10 -140 -2 -14 -6 -63 -10 -110 -4 -47 -13 -112 -20
-145 -7 -33 -16 -94 -19 -135 -4 -41 -8 -93 -11 -115 -2 -22 -7 -87 -10 -145
-6 -104 -46 -345 -86 -510 -11 -47 -45 -204 -75 -350 -30 -146 -66 -299 -79
-341 -14 -42 -37 -127 -50 -190 -13 -63 -40 -154 -60 -204 -54 -137 -88 -287
-80 -352 3 -29 10 -53 14 -53 21 0 109 164 161 297 17 43 37 92 45 108 32 64
78 186 122 320 62 189 186 698 212 871 12 76 35 218 51 314 50 299 68 440 75
575 4 72 15 177 26 235 10 58 21 161 24 230 6 131 20 269 36 357 6 28 12 105
14 170 2 65 6 138 10 163 28 211 38 276 42 283 2 4 7 24 9 45 3 20 11 73 19
117 7 44 16 112 20 150 8 97 35 278 41 285 3 3 3 -85 -1 -195 -8 -265 -12
-322 -23 -370 -5 -22 -10 -92 -11 -155 -1 -63 -6 -167 -11 -230 -5 -64 -6
-265 -3 -446 4 -233 3 -345 -5 -377 -7 -24 -14 -107 -17 -183 -7 -169 -21
-429 -35 -624 -5 -80 -12 -183 -14 -230 -14 -264 -27 -357 -91 -635 -25 -110
-52 -254 -60 -320 -7 -66 -21 -163 -29 -215 -9 -52 -16 -112 -16 -133 0 -44
-22 -123 -50 -182 -11 -22 -24 -62 -30 -90 -24 -117 -96 -343 -132 -409 -18
-34 7 -36 49 -2 73 58 185 205 217 286 53 132 86 224 86 238 0 9 6 23 14 31 8
9 26 81 41 161 15 80 36 183 47 230 10 47 32 150 48 230 15 80 35 174 44 210
9 36 16 95 16 132 0 37 7 100 16 140 8 40 19 105 24 143 5 39 18 111 29 160
11 50 20 118 21 152 0 34 7 88 15 119 9 36 18 150 25 308 42 1052 46 1142 60
1356 8 105 10 279 7 435 -3 180 0 317 10 445 12 151 12 217 3 360 -7 97 -10
271 -7 390 3 118 1 276 -4 350 -5 74 -13 248 -19 387 -5 138 -16 296 -24 350
-8 54 -17 148 -20 208 -11 190 -36 413 -57 519 -11 55 -25 130 -30 166 -5 36
-11 76 -13 90 -2 14 -9 43 -15 65 -16 61 -42 273 -41 335 1 30 -5 105 -14 165
-30 209 -46 350 -56 485 -15 194 -27 276 -67 445 -43 187 -81 299 -146 440
-52 113 -161 283 -220 345 -18 19 -59 69 -89 110 -31 41 -77 100 -102 130 -25
30 -46 58 -46 61 0 3 -64 66 -143 140 -172 161 -319 263 -497 344 -47 21 -99
50 -116 65 -16 14 -45 32 -63 39 -20 9 -30 19 -27 27 3 8 -5 19 -17 25 -44 23
-67 51 -61 75 4 16 0 24 -15 29 -29 9 -26 27 9 47 31 18 41 48 15 48 -23 0
-18 20 10 42 35 27 32 48 -5 48 -16 0 -30 4 -30 10 0 9 4 13 50 50 23 18 24
21 8 30 -28 17 -21 28 22 40 48 13 53 35 8 38 -33 3 -65 22 -38 22 11 1 11 3
-2 11 -27 15 -21 31 22 61 55 38 51 55 -11 50 -17 -1 -35 41 -20 46 4 1 17 9
27 17 18 14 18 14 -2 15 -12 0 -32 8 -45 19 -13 10 -30 20 -38 23 -9 2 2 11
26 21 57 22 60 33 10 35 -56 3 -75 21 -52 55 21 32 5 43 -34 22 -44 -22 -80
-3 -46 25 25 20 10 26 -66 24 -62 -1 -69 1 -54 13 11 7 24 13 31 13 6 0 17 7
24 15 12 14 8 15 -26 10 -49 -7 -74 6 -54 29 19 24 7 29 -39 16 -23 -6 -58 -8
-78 -4 l-36 7 24 18 c40 30 12 41 -50 18 -30 -10 -57 -17 -59 -14 -2 2 5 16
17 31 37 47 9 53 -53 10 -59 -40 -79 -40 -74 2 5 44 -27 40 -57 -7 -23 -37
-27 -40 -45 -29 -20 13 -19 39 3 66 7 9 7 16 0 23 -14 14 -50 -4 -58 -30 -3
-11 -12 -25 -20 -31 -21 -18 -45 4 -45 41 0 28 -9 37 -23 22z"/>
</g>
</svg>
