<?xml version="1.0" standalone="no"?>
<!DOCTYPE svg PUBLIC "-//W3C//DTD SVG 20010904//EN"
 "http://www.w3.org/TR/2001/REC-SVG-20010904/DTD/svg10.dtd">
<svg version="1.0" xmlns="http://www.w3.org/2000/svg"
 width="1033.000000pt" height="1280.000000pt" viewBox="0 0 1033.000000 1280.000000"
 preserveAspectRatio="xMidYMid meet">
<metadata>
Created by potrace 1.15, written by Peter Selinger 2001-2017
</metadata>
<g transform="translate(0.000000,1280.000000) scale(0.100000,-0.100000)"
fill="#ffffff" stroke="none">
<path d="M5005 12793 c-88 -8 -261 -46 -354 -77 -600 -204 -1030 -760 -1069
-1384 -27 -430 97 -811 374 -1143 160 -192 419 -372 662 -459 l62 -23 0 -267
0 -267 -107 -6 c-70 -3 -125 -11 -157 -23 -62 -23 -156 -109 -181 -163 l-18
-41 -952 0 -953 0 -37 94 c-86 218 -249 403 -419 475 -152 66 -340 50 -495
-41 -69 -42 -185 -155 -235 -231 -136 -208 -197 -431 -197 -711 1 -344 104
-622 305 -821 139 -138 253 -188 421 -188 269 1 510 210 635 551 l26 72 949 0
948 0 28 -48 c53 -93 139 -152 252 -173 65 -12 65 -12 61 -43 -27 -211 -71
-1130 -104 -2196 -32 -1007 -46 -1336 -75 -1771 -49 -714 -127 -1202 -236
-1479 -36 -90 -111 -210 -154 -246 -54 -44 -84 -54 -160 -54 -369 0 -984 374
-1633 992 -173 166 -338 340 -447 473 -87 107 -175 232 -175 251 0 21 63 27
281 29 l217 3 281 227 c254 205 298 245 273 245 -4 0 -594 301 -1312 668
l-1305 669 -3 -36 c-2 -30 83 -2020 118 -2746 5 -115 13 -292 16 -393 4 -100
9 -182 12 -182 2 0 33 23 68 51 87 69 190 219 505 731 l127 208 43 -103 c154
-367 442 -839 899 -1472 202 -280 274 -368 419 -512 559 -557 1385 -988 2206
-1151 586 -117 1133 -107 1680 29 158 40 663 210 790 266 392 173 690 378 996
683 337 336 531 604 1034 1435 87 143 194 316 239 385 131 203 309 450 324
450 4 0 20 -24 36 -53 46 -84 260 -429 368 -594 99 -151 99 -151 223 -247 69
-53 132 -99 140 -102 13 -5 15 15 15 147 0 85 4 327 10 539 5 212 14 585 20
830 5 245 17 749 26 1121 9 372 14 686 12 697 -3 19 -61 -10 -518 -257 -283
-153 -869 -470 -1303 -704 l-787 -425 260 -202 261 -202 222 -3 c122 -2 238
-7 257 -12 51 -13 53 -54 6 -147 -106 -213 -457 -567 -966 -977 -289 -233
-461 -356 -564 -407 -264 -128 -541 -213 -706 -214 -234 -3 -337 99 -420 413
-63 239 -85 458 -145 1414 -51 824 -195 3721 -195 3925 l0 36 82 12 c60 9 96
20 136 44 56 34 119 103 140 154 l12 29 949 -3 949 -2 22 -63 c140 -380 423
-600 719 -557 387 57 676 538 648 1080 -42 792 -676 1220 -1132 765 -45 -44
-102 -114 -128 -157 -45 -72 -116 -228 -117 -255 0 -10 -198 -13 -954 -13
l-954 0 -30 53 c-69 123 -180 177 -362 177 l-80 0 0 269 0 269 53 18 c78 25
223 95 307 147 330 206 577 532 686 902 161 553 7 1153 -402 1560 -335 334
-796 500 -1269 458z m363 -803 c366 -103 611 -444 589 -815 -8 -117 -26 -192
-73 -293 -218 -474 -821 -616 -1229 -289 -327 262 -394 735 -154 1083 117 169
316 297 522 334 81 14 261 4 345 -20z"/>
</g>
</svg>
