<?xml version="1.0" standalone="no"?>
<!DOCTYPE svg PUBLIC "-//W3C//DTD SVG 20010904//EN"
 "http://www.w3.org/TR/2001/REC-SVG-20010904/DTD/svg10.dtd">
<svg version="1.0" xmlns="http://www.w3.org/2000/svg"
 width="1280.000000pt" height="856.000000pt" viewBox="0 0 1280.000000 856.000000"
 preserveAspectRatio="xMidYMid meet">
<metadata>
Created by potrace 1.15, written by Peter Selinger 2001-2017
</metadata>
<g transform="translate(0.000000,856.000000) scale(0.100000,-0.100000)"
fill="#000000" stroke="none">
<path d="M3309 8544 c-52 -15 -104 -67 -116 -112 -3 -15 -1 -216 6 -447 6
-231 11 -539 11 -684 0 -258 13 -762 29 -1151 8 -172 7 -196 -7 -207 -14 -12
-14 -13 1 -13 26 0 20 -20 -5 -21 l-23 0 23 -16 c12 -8 22 -22 22 -29 0 -8 -1
-14 -2 -14 -2 0 -28 7 -58 15 -65 18 -60 17 -60 6 0 -4 27 -14 60 -21 38 -8
60 -18 60 -27 0 -14 -25 -11 -78 8 -30 12 -69 12 -57 1 6 -5 38 -19 73 -32 34
-12 62 -28 62 -35 0 -7 -6 -13 -12 -12 -46 1 -52 -4 -19 -19 19 -8 32 -17 29
-19 -5 -5 -78 7 -149 26 -20 5 -52 9 -70 8 -33 -1 -32 -2 11 -12 44 -10 45
-11 15 -17 -28 -6 -26 -7 20 -14 64 -10 135 -32 163 -52 16 -11 22 -25 22 -53
l0 -39 -110 -7 -110 -7 -93 69 c-124 93 -260 175 -333 203 -16 7 -23 7 -19 0
3 -6 -1 -10 -9 -10 -18 0 -66 21 -66 29 0 3 -7 71 -14 151 -29 291 -39 575
-32 910 4 179 11 372 16 430 18 210 24 517 10 549 -27 66 -127 121 -220 121
-88 0 -183 -49 -215 -110 -27 -52 -27 -154 0 -575 42 -681 72 -953 140 -1275
19 -91 19 -93 -4 -80 -25 13 -34 13 -25 -1 3 -6 -47 17 -112 52 -66 34 -115
58 -111 53 9 -10 112 -72 178 -108 25 -13 51 -32 58 -40 16 -19 8 -21 -11 -3
-18 17 -198 101 -204 95 -3 -3 12 -13 33 -21 21 -9 49 -25 63 -36 25 -20 24
-20 -30 0 -30 11 -57 25 -60 30 -7 11 -131 62 -136 56 -5 -5 165 -88 229 -112
26 -10 46 -20 43 -22 -2 -2 -32 7 -67 21 -63 26 -96 34 -69 16 8 -5 11 -10 5
-10 -5 0 -4 -4 3 -9 11 -7 10 -9 -3 -14 -9 -4 -14 -3 -11 2 3 5 -6 14 -22 19
-15 6 -58 22 -97 37 -87 33 -75 19 30 -34 89 -45 88 -55 -1 -16 -32 14 -62 24
-67 22 -6 -2 22 -17 62 -35 39 -18 71 -34 71 -37 0 -5 -49 12 -139 50 -35 14
-65 24 -68 22 -7 -7 78 -52 156 -82 39 -16 69 -30 67 -32 -2 -3 -50 14 -106
37 -56 23 -103 40 -106 37 -3 -2 26 -17 63 -32 37 -15 75 -32 83 -39 8 -7 30
-19 48 -26 18 -7 31 -14 29 -17 -2 -2 -62 19 -132 47 -71 27 -131 50 -134 50
-14 -1 53 -32 150 -68 120 -46 266 -113 229 -106 -14 2 -32 0 -40 -6 -13 -9
-13 -11 0 -20 18 -12 -8 -8 -115 21 -96 26 -126 23 -38 -4 115 -35 113 -48 -3
-22 -79 19 -96 13 -28 -10 l49 -15 -65 4 -65 5 94 -24 c52 -14 97 -28 100 -31
6 -6 -31 0 -73 13 -12 3 -16 1 -12 -6 4 -6 16 -11 27 -11 11 0 30 -5 42 -12
12 -7 58 -22 102 -35 l80 -22 -101 4 c-97 5 -174 15 -219 30 -16 6 -17 5 -5
-4 12 -9 6 -11 -25 -6 -28 4 -34 3 -20 -4 11 -4 45 -11 75 -15 159 -19 221
-29 225 -36 3 -4 -26 -6 -63 -4 -47 3 -61 1 -47 -5 11 -5 72 -10 135 -11 126
-2 203 -18 89 -19 -69 -1 -317 16 -359 24 -18 4 -21 3 -10 -4 8 -5 85 -20 170
-32 85 -13 145 -25 132 -27 -12 -2 -86 6 -163 18 -78 12 -143 19 -146 17 -5
-5 113 -27 145 -27 12 0 22 -4 22 -8 0 -5 -26 -7 -57 -5 -43 3 -54 2 -43 -6
13 -9 12 -11 -5 -11 -16 -1 -17 -2 -5 -9 8 -5 71 -14 140 -20 69 -6 141 -13
160 -15 19 -1 -14 -4 -75 -5 -126 -2 -130 -20 -5 -22 41 -1 104 -5 140 -9 65
-7 64 -7 -35 -9 -106 -2 -106 -12 0 -27 45 -6 52 -9 30 -12 -61 -8 -87 -65
-43 -97 30 -20 142 -55 179 -55 16 0 29 6 30 13 1 27 23 -50 104 -362 191
-741 252 -1038 294 -1416 31 -277 112 -1363 131 -1755 6 -118 15 -273 20 -344
6 -72 10 -167 10 -212 l0 -82 -52 -12 c-111 -26 -210 -90 -224 -145 -16 -65
69 -139 203 -176 92 -26 271 -31 368 -10 138 30 235 98 235 164 0 18 7 54 15
81 14 47 14 52 -15 144 -37 115 -63 223 -89 374 -30 171 -78 528 -90 663 -6
66 -20 224 -31 350 -25 276 -73 694 -100 861 -11 67 -48 243 -84 390 -35 148
-67 284 -71 302 -4 18 -9 31 -11 29 -3 -2 4 -45 16 -96 11 -50 20 -93 20 -96
0 -11 -29 -4 -34 8 -4 6 -4 -3 -1 -20 3 -18 7 -48 10 -65 l5 -33 -10 30 c-6
17 -39 149 -74 295 -35 146 -100 398 -144 560 -95 354 -105 391 -97 398 3 3 5
0 5 -6 0 -7 14 -12 30 -12 21 0 30 5 30 16 0 13 8 15 43 10 27 -4 67 1 112 13
50 13 78 16 102 9 24 -7 40 -5 65 8 18 9 35 20 38 25 3 4 22 -8 42 -27 36 -32
37 -34 14 -34 -14 0 -37 5 -52 10 -34 13 -46 4 -13 -10 20 -8 17 -9 -15 -3
-28 4 -37 3 -32 -6 4 -6 34 -11 71 -11 35 0 70 -3 79 -6 22 -9 10 -24 -20 -24
-43 0 -26 -20 19 -21 67 -2 6 -17 -72 -18 -39 -1 -61 -5 -55 -10 8 -8 92 -20
152 -21 14 0 21 -4 16 -11 -4 -7 -36 -9 -98 -5 -98 6 -104 1 -16 -12 l55 -9
-52 -8 c-83 -12 -62 -25 30 -19 59 4 78 3 67 -5 -8 -6 -48 -11 -88 -11 -50 0
-71 -3 -66 -11 4 -7 37 -8 103 -4 106 8 114 -4 17 -24 -33 -8 -54 -17 -49 -22
5 -5 32 -2 63 6 30 8 56 15 58 15 1 0 2 -6 2 -14 0 -16 -21 -26 -56 -26 -16 0
-23 -4 -18 -11 4 -7 21 -9 40 -6 31 5 34 3 34 -19 0 -13 -5 -24 -11 -24 -8 0
-8 -4 -1 -13 6 -7 18 -82 27 -167 56 -539 172 -1170 325 -1780 76 -304 114
-521 146 -830 18 -185 30 -631 17 -679 -8 -31 -15 -36 -77 -57 -106 -35 -176
-95 -176 -149 0 -57 87 -124 205 -156 94 -26 287 -31 372 -10 42 10 63 10 110
0 77 -16 251 -17 335 0 132 26 238 101 238 169 0 21 3 23 23 18 115 -35 140
-39 257 -39 99 -1 141 4 205 22 278 78 266 247 -22 321 -40 10 -42 13 -50 58
-4 26 -8 166 -8 312 1 353 31 591 121 955 27 110 69 255 85 297 l11 26 31 -18
c51 -30 263 -97 377 -119 116 -23 316 -45 329 -36 5 2 14 -2 21 -10 7 -9 21
-13 34 -9 18 4 34 -8 82 -62 87 -99 90 -102 130 -119 61 -25 77 -20 113 35 18
28 41 55 52 61 11 6 54 12 96 14 90 4 106 15 108 80 2 45 5 48 158 200 86 85
162 155 170 155 7 0 29 -16 47 -35 31 -32 39 -35 72 -30 31 6 47 1 91 -24 82
-47 254 -69 298 -37 13 9 31 16 40 16 8 0 38 12 65 26 46 25 57 27 199 28 117
1 158 5 188 18 45 21 47 38 8 97 -32 49 -32 63 5 79 38 18 31 42 -13 43 -21 0
-58 4 -83 9 -36 7 -29 8 40 5 47 -2 94 0 105 5 14 6 -8 9 -70 11 l-90 3 78 3
c87 4 98 23 14 24 -29 0 -61 4 -72 8 -17 7 -15 9 15 15 19 4 74 11 122 14 81
7 131 21 77 23 -15 0 1 9 41 23 76 27 146 61 155 77 12 19 -36 58 -106 85 -60
24 -77 26 -151 21 -132 -9 -266 -26 -328 -42 -32 -8 -93 -14 -136 -14 -65 1
-72 3 -39 9 22 4 45 9 50 10 6 2 20 1 33 -4 14 -5 76 5 175 28 83 19 172 39
197 44 45 10 45 10 10 12 l-35 2 35 8 c19 4 60 15 90 24 l55 16 -59 -5 c-33
-3 -57 -2 -53 2 4 4 47 8 95 8 49 1 97 7 107 13 18 11 16 12 -10 6 -16 -3 -38
-8 -49 -11 -11 -3 -16 -1 -12 5 3 5 21 13 41 16 19 4 37 12 41 17 4 7 0 9 -12
6 -49 -14 -186 -38 -197 -34 -7 2 26 12 72 22 94 21 94 34 0 16 -44 -9 -63 -9
-76 -1 -17 11 -17 11 0 6 23 -7 194 30 184 40 -4 5 -119 -11 -164 -23 -13 -3
-23 -1 -23 4 0 5 6 10 13 11 19 1 153 40 142 41 -5 0 -48 -6 -94 -14 -46 -8
-86 -13 -88 -11 -3 2 39 14 91 26 53 13 96 25 96 27 0 8 -89 -7 -135 -22 -50
-16 -111 -27 -102 -19 3 4 30 15 59 25 l53 18 -45 -6 c-25 -3 -85 -19 -135
-34 -49 -15 -91 -26 -93 -24 -5 5 107 45 128 45 10 0 21 4 24 8 3 4 39 19 80
32 115 36 83 36 -40 0 -60 -18 -125 -32 -144 -32 -19 0 -64 -8 -100 -18 -79
-23 -62 -26 22 -4 33 8 62 13 65 11 7 -8 -135 -39 -146 -33 -6 4 -53 -5 -106
-19 -53 -15 -101 -25 -108 -22 -6 2 31 14 83 27 144 35 169 56 30 26 -201 -44
-257 -58 -375 -95 -71 -22 -131 -39 -133 -37 -5 6 72 34 191 71 62 19 103 34
93 35 -29 0 -173 -45 -305 -97 -158 -61 -149 -58 -130 -42 24 21 6 96 -24 102
-14 3 -10 5 13 6 37 1 32 16 -10 24 -14 2 -3 5 25 6 32 1 46 4 39 11 -5 5 -59
11 -119 11 -61 1 -103 4 -95 6 44 13 45 15 22 24 -14 5 -40 5 -63 0 -21 -5
-39 -5 -39 -1 0 9 164 50 199 50 13 0 19 4 16 10 -4 7 -57 9 -143 6 -172 -5
-143 12 35 21 68 3 118 10 111 14 -6 4 -48 6 -91 4 -86 -4 -90 5 -12 28 36 11
45 17 33 22 -10 4 -39 0 -65 -8 -76 -24 -106 -29 -98 -17 3 5 15 10 25 10 10
0 20 5 22 10 2 6 29 14 61 17 99 10 62 22 -60 19 l-118 -3 52 16 c62 19 77 31
37 30 -16 0 -85 -22 -154 -48 -69 -26 -132 -46 -139 -43 -18 7 37 32 127 58
34 10 62 24 62 31 0 6 10 14 23 17 12 3 -5 4 -38 2 -33 -2 -82 0 -109 3 l-50
6 41 20 c23 11 39 23 37 27 -12 19 -54 4 -114 -40 -36 -27 -92 -58 -125 -70
-68 -24 -64 -20 49 58 36 25 66 48 66 51 0 3 -15 10 -33 16 -25 7 -40 7 -58
-2 -13 -7 -40 -16 -59 -20 -19 -4 -46 -15 -59 -24 -15 -9 -22 -11 -17 -3 4 6
22 20 39 29 20 10 27 18 18 21 -18 6 -90 -17 -124 -41 -39 -27 -45 -14 -6 13
28 20 29 24 14 33 -24 13 -58 -14 -117 -92 -25 -34 -61 -79 -80 -99 -18 -20
-41 -48 -51 -62 l-17 -25 6 35 c12 69 56 150 106 195 45 40 47 44 27 50 -16 5
-30 -2 -61 -31 -57 -56 -84 -106 -113 -214 -30 -114 -32 -147 -7 -152 9 -2
-12 -14 -48 -27 -36 -13 -86 -34 -112 -47 -27 -14 -48 -22 -48 -19 0 3 44 98
97 212 193 413 390 784 569 1068 43 69 62 109 58 122 -4 12 -3 14 3 5 7 -9 37
29 106 133 54 80 95 145 92 145 -2 0 -44 -58 -92 -128 -48 -70 -91 -129 -96
-130 -4 -1 -23 -8 -43 -17 -19 -8 -40 -14 -45 -12 -6 1 -41 -46 -78 -105 -66
-105 -96 -147 -71 -99 29 56 217 349 312 488 259 377 566 753 871 1069 162
167 167 178 120 235 -53 63 -144 85 -223 53 -41 -16 -80 -59 -80 -87 0 -8 -59
-98 -132 -199 -769 -1070 -1287 -1925 -1683 -2778 -71 -151 -133 -281 -138
-287 -5 -7 -26 -13 -46 -13 -40 0 -61 -14 -61 -42 0 -11 10 -20 28 -24 15 -4
30 -9 35 -11 13 -8 -13 -43 -33 -43 -11 0 -20 -4 -20 -10 0 -5 5 -10 10 -10
17 0 12 -20 -59 -199 -192 -488 -293 -865 -349 -1301 -5 -36 -11 -58 -14 -50
-13 34 -40 550 -48 910 -17 706 -8 1730 16 1917 4 37 9 44 49 63 33 16 45 28
50 52 4 18 18 36 36 47 48 27 48 55 -1 84 -15 10 -45 40 -66 68 -31 43 -37 60
-38 102 -1 43 -4 52 -21 55 -11 2 -28 13 -39 24 -22 24 -20 70 19 343 82 583
250 1025 524 1380 64 83 71 107 46 154 -36 71 -111 105 -215 99 -90 -5 -141
-37 -166 -105 -10 -26 -45 -95 -78 -153 -197 -346 -317 -735 -371 -1210 -8
-74 -15 -153 -15 -174 l0 -40 -30 29 c-25 24 -30 36 -32 89 -3 53 -6 62 -28
73 -36 18 -58 48 -75 105 -8 28 -19 56 -24 62 -6 7 -13 44 -15 82 -9 119 -45
194 -93 194 l-25 0 26 -30 c33 -40 48 -93 44 -155 l-3 -50 -26 28 c-15 15 -34
54 -44 90 -22 81 -62 150 -82 143 -41 -16 -60 -16 -72 -2 -8 9 -25 16 -39 16
l-26 0 35 -37 c28 -32 29 -33 4 -11 -16 15 -42 30 -57 33 -14 4 -34 15 -44 26
-14 15 -25 18 -53 13 -20 -4 -38 -8 -40 -10 -2 -2 20 -32 50 -66 84 -98 85
-101 21 -58 -33 22 -68 53 -77 68 -33 51 -68 82 -94 82 -25 0 -25 0 10 -36
l34 -35 -29 11 c-17 6 -39 10 -50 9 -12 -2 -37 3 -57 9 l-36 13 -8 284 c-8
302 -1 780 16 1060 20 349 60 810 86 981 19 132 14 170 -30 212 -60 58 -153
76 -248 46z m393 -2681 c15 -15 26 -28 24 -30 -3 -3 -130 78 -144 92 -21 20
98 -41 120 -62z m313 25 c17 -29 17 -31 1 -19 -21 17 -40 51 -29 51 5 0 17
-15 28 -32z m-443 -18 c63 -38 84 -60 57 -60 -12 0 -139 88 -139 96 0 10 17 2
82 -36z m-41 -36 c17 -8 29 -18 26 -20 -6 -6 -67 23 -67 31 0 8 10 6 41 -11z
m-792 -94 c64 -38 127 -79 141 -91 l25 -21 -25 14 c-14 8 -82 48 -152 88 -71
40 -128 74 -128 76 0 13 36 -4 139 -66z m976 30 c10 -11 16 -20 13 -20 -3 0
-13 9 -23 20 -10 11 -16 20 -13 20 3 0 13 -9 23 -20z m-980 -74 c11 -9 -16 2
-60 25 -44 23 -84 46 -90 52 -15 14 127 -59 150 -77z m1285 36 c0 -15 -2 -15
-10 -2 -13 20 -13 33 0 25 6 -3 10 -14 10 -23z m-1020 -182 c8 -5 11 -10 5
-10 -5 0 -17 5 -25 10 -8 5 -10 10 -5 10 6 0 17 -5 25 -10z m-801 -46 c10 -9
-96 -3 -109 6 -10 7 4 8 45 4 33 -4 62 -8 64 -10z m59 -81 c-10 -2 -26 -2 -35
0 -10 3 -2 5 17 5 19 0 27 -2 18 -5z m-193 -33 c28 -6 9 -7 -60 -3 -55 3 -102
7 -104 9 -8 8 125 3 164 -6z m113 3 c-10 -2 -26 -2 -35 0 -10 3 -2 5 17 5 19
0 27 -2 18 -5z m90 -10 c-10 -2 -28 -2 -40 0 -13 2 -5 4 17 4 22 1 32 -1 23
-4z m3897 -590 c-15 -27 -32 -52 -38 -58 -6 -5 2 13 18 40 15 28 30 53 32 58
2 4 7 7 10 7 2 0 -7 -21 -22 -47z m-2895 7 c0 -5 -12 -10 -27 -9 l-28 1 25 8
c14 4 26 8 28 9 1 1 2 -3 2 -9z m2840 -100 c-6 -11 -13 -20 -16 -20 -2 0 0 9
6 20 6 11 13 20 16 20 2 0 0 -9 -6 -20z m-2079 -196 c72 -9 171 -14 249 -12
l130 3 0 -125 c0 -69 -11 -388 -25 -710 -13 -322 -29 -754 -35 -960 -11 -402
-18 -546 -50 -989 -11 -156 -20 -293 -20 -305 0 -50 -18 10 -39 129 -24 134
-56 269 -211 900 -49 204 -110 467 -135 586 -54 265 -137 757 -165 979 -12 91
-23 170 -25 175 -5 11 3 -110 10 -160 l5 -30 -13 32 c-6 18 -16 33 -22 32 -5
0 -13 10 -17 23 -5 16 -6 12 -3 -12 11 -93 17 -174 12 -170 -3 3 -10 46 -16
95 -6 50 -18 140 -26 200 -14 107 -18 172 -8 132 2 -9 17 -24 33 -32 22 -12
30 -24 33 -52 3 -21 3 5 1 57 l-4 95 32 25 c29 23 86 60 152 97 26 16 15 16
157 -3z m596 -167 c-2 -23 -3 -1 -3 48 0 50 1 68 3 42 2 -26 2 -67 0 -90z m62
91 c-1 -24 -3 -35 -6 -25 -3 12 -10 16 -24 12 -13 -4 -19 -2 -19 8 0 10 7 13
20 10 15 -4 20 0 20 16 0 11 2 21 5 21 3 0 4 -19 4 -42z m-72 -271 c-2 -23 -3
-1 -3 48 0 50 1 68 3 42 2 -26 2 -67 0 -90z m2002 -81 c-9 -8 -163 -65 -167
-61 -8 8 46 35 98 49 58 15 76 19 69 12z m-229 -69 c0 -2 -12 -14 -27 -28
l-28 -24 24 28 c23 25 31 32 31 24z m400 -1 c0 -7 -181 -49 -186 -43 -3 3 32
14 78 25 86 21 108 25 108 18z m-665 -58 c-55 -62 -61 -67 -35 -28 33 49 51
70 63 70 5 0 -8 -19 -28 -42z m315 -2 c0 -2 -7 -7 -16 -10 -8 -3 -12 -2 -9 4
6 10 25 14 25 6z m338 -3 c-10 -2 -26 -2 -35 0 -10 3 -2 5 17 5 19 0 27 -2 18
-5z m-548 -38 c-7 -8 -18 -15 -24 -15 -6 0 -2 7 8 15 25 19 32 19 16 0z
m-2543 -72 c-3 -10 -5 -2 -5 17 0 19 2 27 5 18 2 -10 2 -26 0 -35z m10 -65
c-3 -7 -5 -2 -5 12 0 14 2 19 5 13 2 -7 2 -19 0 -25z m4436 25 c-7 -2 -19 -2
-25 0 -7 3 -2 5 12 5 14 0 19 -2 13 -5z m-60 -10 c-7 -2 -21 -2 -30 0 -10 3
-4 5 12 5 17 0 24 -2 18 -5z m-4366 -65 c-3 -8 -6 -5 -6 6 -1 11 2 17 5 13 3
-3 4 -12 1 -19z m3753 1 c-36 -10 -69 -18 -75 -18 -17 2 99 38 120 38 11 0 -9
-9 -45 -20z m703 -46 c-7 -2 -21 -2 -30 0 -10 3 -4 5 12 5 17 0 24 -2 18 -5z
m-5125 -63 c0 -9 -3 -7 -8 5 -5 11 -8 29 -8 40 0 16 2 15 8 -5 4 -14 8 -32 8
-40z m5049 54 c-3 -3 -12 -4 -19 -1 -8 3 -5 6 6 6 11 1 17 -2 13 -5z m-30 -30
c-3 -3 -12 -4 -19 -1 -8 3 -5 6 6 6 11 1 17 -2 13 -5z m-310 -40 c-3 -3 -12
-4 -19 -1 -8 3 -5 6 6 6 11 1 17 -2 13 -5z m-4700 -36 c-3 -7 -5 -2 -5 12 0
14 2 19 5 13 2 -7 2 -19 0 -25z m10 -40 c-3 -8 -6 -5 -6 6 -1 11 2 17 5 13 3
-3 4 -12 1 -19z m4916 -205 c-13 -2 -33 -2 -45 0 -13 2 -3 4 22 4 25 0 35 -2
23 -4z"/>
<path d="M155 7802 c-71 -24 -114 -58 -136 -106 -25 -54 -24 -89 3 -112 34
-31 218 -263 263 -334 183 -286 918 -1602 1076 -1925 118 -241 454 -1000 554
-1250 242 -606 338 -1052 395 -1835 27 -375 35 -951 14 -1037 -6 -20 -9 -21
-123 -16 -223 11 -394 -43 -443 -139 -17 -33 -18 -40 -5 -70 18 -41 38 -59
103 -92 149 -75 439 -75 588 0 47 24 54 25 91 12 102 -34 238 -2 292 68 35 47
38 96 15 259 -12 77 -26 185 -32 240 -22 197 -61 525 -95 790 -19 149 -42 339
-50 422 -17 174 -34 268 -76 438 -53 211 -176 597 -178 559 -1 -6 8 -37 19
-69 22 -64 21 -75 -4 -50 -20 21 -21 24 9 -75 46 -155 25 -106 -44 100 -178
533 -490 1254 -775 1790 -546 1028 -696 1333 -946 1925 -77 182 -117 259 -161
309 -15 17 -32 50 -38 74 -31 112 -180 171 -316 124z m2312 -4454 c-3 -8 -6
-5 -6 6 -1 11 2 17 5 13 3 -3 4 -12 1 -19z m20 -70 c-3 -8 -6 -5 -6 6 -1 11 2
17 5 13 3 -3 4 -12 1 -19z"/>
<path d="M7315 7686 c-120 -29 -225 -111 -273 -213 -24 -51 -27 -70 -27 -153
1 -84 4 -101 28 -148 104 -200 352 -278 561 -178 142 69 216 183 216 335 0 70
-4 86 -35 149 -84 167 -281 254 -470 208z m165 -7 c132 -21 240 -96 296 -206
25 -51 29 -68 29 -148 0 -78 -4 -97 -28 -146 -52 -108 -166 -189 -296 -211
-221 -38 -439 118 -458 329 -17 186 136 359 342 386 17 2 35 5 40 5 6 1 39 -3
75 -9z"/>
<path d="M7435 7250 c-11 -17 5 -32 21 -19 8 6 14 15 14 20 0 12 -27 11 -35
-1z"/>
<path d="M1889 5978 c25 -11 51 -27 59 -34 17 -17 23 -18 20 -1 -3 12 -92 58
-112 56 -6 0 9 -10 33 -21z"/>
<path d="M5835 5956 c-92 -29 -169 -98 -211 -190 -22 -47 -27 -73 -26 -135 0
-102 28 -175 91 -240 56 -58 105 -84 184 -101 149 -30 310 50 376 190 22 47
26 69 26 145 0 82 -3 97 -33 158 -72 146 -251 222 -407 173z m254 -41 c114
-63 175 -173 169 -305 -6 -124 -74 -226 -185 -277 -105 -48 -209 -41 -309 23
-173 109 -201 355 -58 497 73 73 139 97 249 94 66 -3 89 -8 134 -32z"/>
<path d="M5957 5563 c-12 -11 -8 -23 8 -23 8 0 15 7 15 15 0 16 -12 20 -23 8z"/>
<path d="M6739 5523 c-13 -16 -12 -17 4 -4 9 7 17 15 17 17 0 8 -8 3 -21 -13z"/>
<path d="M6709 5483 c-13 -16 -12 -17 4 -4 9 7 17 15 17 17 0 8 -8 3 -21 -13z"/>
<path d="M6650 5400 c-12 -16 -19 -30 -16 -30 2 0 14 14 26 30 12 17 19 30 16
30 -2 0 -14 -13 -26 -30z"/>
<path d="M10123 5395 c-53 -43 -93 -120 -124 -243 -16 -63 -26 -118 -23 -123
3 -5 13 -9 22 -9 9 -1 -22 -16 -69 -34 -158 -60 -318 -156 -509 -306 -87 -69
-108 -80 -141 -80 -28 0 -41 -5 -49 -19 -14 -26 8 -47 58 -56 84 -14 81 -45
-6 -45 l-57 -1 30 -24 c17 -14 66 -44 110 -67 44 -23 74 -43 67 -46 -17 -5
-15 -15 10 -48 14 -17 21 -38 19 -56 -4 -41 35 -71 153 -117 169 -66 430 -120
577 -121 38 0 61 -5 69 -15 9 -11 17 -12 32 -4 17 9 27 2 74 -48 31 -32 63
-69 72 -82 17 -25 104 -71 134 -71 9 0 33 24 52 53 43 65 67 77 151 77 81 0
105 19 105 81 0 40 5 46 155 195 87 87 163 154 173 154 10 0 31 -13 47 -30 24
-25 37 -30 73 -30 30 0 60 -8 88 -25 43 -25 169 -55 234 -55 20 0 53 9 75 20
22 11 45 20 53 20 7 0 34 12 60 27 39 23 55 27 102 24 107 -8 215 -3 255 12
51 18 56 44 20 99 -30 45 -27 63 10 80 47 21 29 35 -57 44 l-83 9 95 5 c83 5
87 7 35 9 -33 2 -89 7 -125 11 -46 6 -30 7 53 3 83 -4 117 -2 117 6 0 6 -18
11 -42 11 -24 0 -61 3 -83 7 l-40 7 40 9 c22 5 79 12 127 16 86 7 130 20 72
22 -21 0 -6 8 51 27 101 34 150 62 150 87 0 25 -51 59 -128 84 -55 18 -72 19
-152 11 -131 -14 -245 -28 -285 -34 -19 -3 8 5 60 19 52 13 176 38 275 56 99
17 182 33 184 35 9 9 -40 3 -145 -16 -60 -11 -116 -19 -124 -19 -20 1 64 25
170 48 64 14 76 19 50 21 l-35 1 39 15 c79 29 56 28 -91 -3 -40 -8 -78 -13
-85 -10 -7 2 12 9 42 16 86 18 132 32 127 37 -2 2 -33 -2 -68 -11 -65 -15
-117 -20 -107 -9 4 3 17 7 30 9 12 1 54 11 93 21 77 20 73 32 -5 15 -28 -6
-62 -11 -75 -11 -28 0 -34 15 -7 17 31 3 117 25 125 33 5 4 -9 4 -30 0 -21 -4
-56 -10 -78 -14 l-40 -7 35 15 c19 8 53 18 75 22 25 5 32 9 20 11 -11 2 -45
-4 -75 -12 -56 -17 -153 -35 -158 -30 -2 2 16 10 40 18 66 24 23 19 -77 -7
-49 -14 -91 -23 -93 -22 -2 2 56 23 127 47 72 23 129 44 127 46 -2 2 -46 -8
-97 -23 -52 -15 -107 -26 -124 -26 -16 1 -61 -8 -100 -18 -63 -18 -56 -20 21
-6 16 3 9 -1 -16 -9 -25 -9 -58 -13 -74 -9 -21 5 -27 3 -21 -6 5 -9 4 -11 -3
-6 -7 4 -46 -2 -87 -13 -77 -21 -103 -26 -92 -15 3 3 47 16 97 29 88 22 120
35 89 35 -32 0 -264 -55 -409 -97 -85 -25 -162 -48 -170 -50 -13 -4 -13 -3 0
5 16 11 199 73 269 92 23 6 41 14 38 16 -9 10 -281 -78 -390 -125 -49 -21 -85
-29 -60 -13 22 14 4 81 -26 97 l-26 14 35 -6 c24 -4 32 -2 25 5 -5 6 -21 12
-35 15 -14 2 -3 5 25 6 32 1 46 4 39 11 -5 5 -59 10 -119 11 -95 1 -105 3 -79
14 28 11 28 12 7 19 -13 4 -44 5 -70 2 l-48 -6 60 20 c33 11 86 22 117 26 33
4 55 11 52 16 -4 6 -63 8 -147 5 -173 -5 -148 12 30 20 76 4 120 10 116 16 -3
5 -30 7 -62 4 -31 -2 -67 -1 -81 2 -22 7 -19 9 28 21 28 8 52 17 52 22 0 12
-33 10 -80 -7 -23 -8 -54 -15 -69 -14 -14 0 -19 3 -11 6 8 2 29 11 47 19 17 8
42 14 55 15 12 0 32 4 43 9 12 5 -27 7 -97 6 -65 -1 -118 -1 -118 0 0 1 26 10
58 20 45 13 53 18 37 24 -19 7 -76 -11 -223 -69 -55 -22 -104 -28 -86 -12 5 5
50 23 99 39 50 17 89 35 88 41 -2 6 7 11 20 11 18 1 19 2 6 10 -9 5 -32 5 -57
-1 -25 -5 -50 -5 -65 0 -14 6 -35 7 -47 4 -33 -9 -18 11 20 27 36 15 39 30 6
30 -13 0 -51 -20 -84 -44 -51 -38 -180 -101 -189 -93 -1 2 38 30 87 63 49 32
90 62 90 65 0 3 -16 11 -36 17 -28 8 -41 8 -58 -2 -30 -19 -74 -28 -81 -16 -3
5 0 10 7 10 8 0 7 4 -4 11 -13 7 -26 5 -47 -6 -17 -8 -35 -15 -41 -15 -7 0
-23 -9 -37 -20 -14 -11 -31 -20 -37 -20 -6 0 6 12 27 27 37 26 38 28 18 37
-18 8 -28 3 -57 -25 -20 -19 -50 -54 -67 -78 -17 -25 -52 -68 -77 -96 -26 -29
-50 -59 -52 -66 -3 -8 -8 -12 -11 -9 -10 9 38 137 68 180 16 23 44 52 63 65
26 18 30 24 17 29 -24 9 -27 8 -62 -19z m257 -30 c-7 -8 -18 -15 -24 -15 -6 0
-2 7 8 15 25 19 32 19 16 0z m245 -70 c-49 -19 -92 -35 -94 -35 -2 0 8 9 22
20 14 11 49 26 79 34 90 25 87 17 -7 -19z m-145 -39 c0 -3 -15 -14 -32 -26
l-33 -22 30 26 c31 27 35 29 35 22z m320 -21 c-87 -25 -118 -30 -107 -19 8 9
146 43 172 43 11 0 -18 -11 -65 -24z m-576 -18 c-16 -18 -37 -44 -47 -57 -17
-24 -17 -24 0 7 18 33 59 83 69 83 4 0 -7 -15 -22 -33z m311 -17 c-3 -5 -12
-10 -18 -10 -7 0 -6 4 3 10 19 12 23 12 15 0z m333 -7 c-10 -2 -28 -2 -40 0
-13 2 -5 4 17 4 22 1 32 -1 23 -4z m-548 -27 c0 -2 -8 -10 -17 -17 -16 -13
-17 -12 -4 4 13 16 21 21 21 13z m1737 -82 c-3 -3 -12 -4 -19 -1 -8 3 -5 6 6
6 11 1 17 -2 13 -5z m193 -34 c-14 -4 -38 -8 -55 -8 l-30 0 30 8 c17 4 41 8
55 8 l25 0 -25 -8z m-97 -17 c-7 -2 -19 -2 -25 0 -7 3 -2 5 12 5 14 0 19 -2
13 -5z m112 -3 c3 -5 1 -10 -4 -10 -6 0 -11 5 -11 10 0 6 2 10 4 10 3 0 8 -4
11 -10z m-705 -55 c-46 -13 -86 -22 -88 -20 -2 2 22 11 54 20 33 9 64 18 69
20 6 2 19 3 30 3 11 1 -18 -10 -65 -23z m833 -22 c-7 -2 -19 -2 -25 0 -7 3 -2
5 12 5 14 0 19 -2 13 -5z m-48 -8 c-27 -11 -96 -22 -89 -15 9 9 45 17 79 18
11 0 16 -1 10 -3z m-112 -22 c-7 -2 -21 -2 -30 0 -10 3 -4 5 12 5 17 0 24 -2
18 -5z m-56 -9 c-3 -3 -12 -4 -19 -1 -8 3 -5 6 6 6 11 1 17 -2 13 -5z m-321
-105 c4 -6 21 -8 43 -5 26 4 30 3 16 -4 -11 -5 -58 -8 -105 -8 -78 0 -81 1
-37 8 27 5 52 11 55 14 9 9 20 7 28 -5z"/>
<path d="M12268 5103 c7 -3 16 -2 19 1 4 3 -2 6 -13 5 -11 0 -14 -3 -6 -6z"/>
<path d="M7142 5088 c-113 -17 -223 -103 -264 -207 -30 -77 -29 -185 1 -264
41 -104 148 -188 263 -206 277 -45 484 239 360 492 -67 135 -208 207 -360 185z
m195 -49 c248 -119 242 -470 -10 -585 -162 -73 -342 -5 -427 163 -20 39 -24
64 -25 128 0 96 29 169 93 233 102 102 237 124 369 61z"/>
<path d="M7210 4675 c0 -8 7 -15 15 -15 8 0 15 7 15 15 0 8 -7 15 -15 15 -8 0
-15 -7 -15 -15z"/>
<path d="M2991 4004 c0 -11 3 -14 6 -6 3 7 2 16 -1 19 -3 4 -6 -2 -5 -13z"/>
<path d="M2386 3740 c3 -14 11 -32 16 -40 6 -10 7 -7 2 10 -3 14 -11 32 -16
40 -6 10 -7 7 -2 -10z"/>
<path d="M8281 3664 c-47 -8 -87 -17 -90 -20 -9 -9 125 7 177 21 63 17 20 17
-87 -1z"/>
<path d="M9775 736 c-39 -17 -95 -80 -95 -107 0 -18 4 -20 26 -15 69 18 150
71 173 115 11 20 10 21 -31 21 -24 -1 -57 -7 -73 -14z"/>
</g>
</svg>
