<?xml version="1.0" standalone="no"?>
<!DOCTYPE svg PUBLIC "-//W3C//DTD SVG 20010904//EN"
 "http://www.w3.org/TR/2001/REC-SVG-20010904/DTD/svg10.dtd">
<svg version="1.0" xmlns="http://www.w3.org/2000/svg"
 width="1280.000000pt" height="1272.000000pt" viewBox="0 0 1280.000000 1272.000000"
 preserveAspectRatio="xMidYMid meet">
<metadata>
Created by potrace 1.15, written by Peter Selinger 2001-2017
</metadata>
<g transform="translate(0.000000,1272.000000) scale(0.100000,-0.100000)"
fill="#000000" stroke="none">
<path d="M5712 12710 c-343 -16 -556 -47 -892 -130 -717 -178 -1169 -370
-1705 -725 -93 -62 -179 -122 -189 -134 -19 -21 -19 -21 2 -21 11 0 72 13 134
29 244 63 526 182 567 239 14 21 33 33 54 36 18 3 65 10 105 16 45 6 123 31
205 64 212 87 511 185 524 172 3 -2 -44 -30 -103 -60 -122 -62 -133 -70 -158
-108 -12 -19 -15 -36 -11 -61 8 -39 -12 -67 -48 -67 -87 -1 -214 -135 -180
-189 17 -27 50 -24 123 10 38 17 75 29 83 26 17 -7 30 -66 22 -100 -10 -39
-44 -47 -191 -47 -150 0 -275 -12 -439 -41 -295 -53 -391 -68 -492 -78 -121
-11 -201 -36 -305 -94 -155 -87 -282 -206 -332 -313 -43 -90 -90 -143 -170
-191 -118 -71 -166 -121 -166 -173 0 -21 3 -22 50 -16 33 4 50 3 50 -4 0 -6
-60 -73 -133 -148 -138 -142 -167 -180 -192 -252 -25 -71 -83 -138 -191 -221
-113 -88 -156 -135 -130 -145 24 -9 129 46 305 162 90 59 192 119 226 135 40
18 77 44 101 72 69 80 228 175 403 242 170 66 232 48 251 -70 6 -33 7 -99 4
-146 -7 -92 5 -153 32 -163 22 -9 64 38 64 72 0 68 59 82 79 19 6 -18 10 -80
9 -137 -3 -101 -2 -104 21 -116 35 -18 41 -32 41 -104 0 -79 -27 -194 -74
-321 -63 -167 -71 -210 -71 -364 1 -215 48 -347 186 -520 77 -96 129 -192 129
-238 0 -37 26 -96 56 -128 26 -27 33 -77 20 -137 -11 -48 9 -89 56 -113 40
-20 78 -70 78 -102 0 -28 37 -94 78 -139 45 -50 111 -100 123 -92 12 7 12 76
0 106 -5 13 -25 43 -45 67 -36 42 -36 44 -30 107 7 62 6 64 -19 73 -15 6 -40
30 -58 53 -40 56 -157 289 -131 263 49 -49 277 -322 369 -440 161 -209 318
-365 367 -365 26 0 19 -12 -38 -65 -116 -107 -77 -169 115 -186 119 -10 148
-24 142 -66 -7 -44 34 -84 130 -131 104 -51 215 -78 392 -97 200 -21 277 -47
377 -126 68 -53 174 -103 297 -139 57 -17 127 -43 155 -57 135 -68 249 -177
261 -251 10 -63 21 -78 63 -90 22 -7 66 -33 96 -58 69 -56 140 -89 234 -109
130 -27 182 -16 182 39 0 31 18 46 55 46 36 0 60 -22 70 -62 4 -14 18 -36 31
-49 36 -34 64 -138 71 -261 8 -149 -1 -171 -136 -312 -155 -162 -224 -288
-256 -471 -18 -104 -19 -160 -4 -240 13 -69 29 -104 103 -217 111 -172 274
-502 341 -693 36 -103 82 -149 247 -246 202 -119 295 -230 320 -380 11 -68 10
-77 -46 -429 -13 -85 -31 -227 -40 -315 -30 -294 -37 -337 -80 -509 -55 -213
-79 -325 -106 -491 -28 -172 -63 -286 -100 -329 -33 -37 -30 -46 12 -46 40 0
44 -21 14 -73 -16 -27 -26 -59 -26 -83 0 -92 103 -219 222 -274 81 -37 215
-64 281 -57 52 7 97 29 97 50 0 6 -34 44 -75 83 -45 42 -75 79 -75 91 0 12 36
54 90 106 93 90 105 114 74 148 -29 33 -8 68 109 184 171 168 387 336 458 355
20 6 55 28 77 51 56 56 85 120 90 199 2 36 9 71 14 78 7 8 35 11 82 10 63 -2
78 2 136 31 128 65 313 230 492 437 106 123 157 171 280 262 97 71 140 121
153 174 9 35 57 78 121 107 27 13 72 34 101 47 161 76 358 333 423 554 42 142
121 274 285 480 113 142 169 225 203 298 21 48 26 72 26 148 1 111 -7 124 -76
124 -60 0 -90 15 -179 89 -64 54 -141 91 -190 91 -39 0 -212 77 -429 190 -261
137 -327 155 -393 108 l-32 -23 18 25 c104 147 107 157 68 203 -36 40 -51 76
-51 120 0 45 -50 127 -107 176 -59 50 -167 104 -253 126 -244 62 -556 299
-591 449 -18 78 -25 82 -138 89 -140 7 -173 27 -146 90 11 26 -17 22 -44 -7
-22 -24 -24 -42 -10 -96 10 -38 -194 -2 -248 44 -24 21 -26 27 -16 49 14 31 7
40 -20 26 -28 -16 -89 -3 -182 36 -44 19 -95 37 -112 41 -29 6 -34 3 -42 -19
-20 -53 -88 -59 -78 -8 3 14 9 34 12 44 10 24 -16 22 -106 -8 -41 -14 -101
-33 -134 -41 -90 -23 -150 -60 -247 -151 -103 -98 -112 -100 -219 -48 -91 43
-144 46 -230 9 -126 -53 -195 -39 -256 49 -43 64 -63 161 -72 347 -9 171 -19
207 -72 239 -47 29 -126 34 -301 20 -188 -15 -196 -12 -152 53 23 35 28 53 27
93 -2 56 17 124 57 205 45 89 62 158 49 197 -14 44 -38 49 -166 33 -131 -16
-148 -29 -193 -140 -46 -115 -95 -147 -255 -169 -108 -15 -165 -1 -226 56 -76
71 -159 251 -177 387 -31 235 109 427 424 578 84 41 94 43 181 44 97 1 123 11
123 46 0 51 45 78 130 78 65 0 271 -36 317 -55 63 -26 111 -83 168 -195 81
-161 160 -250 223 -250 87 0 27 242 -90 366 l-53 56 0 72 c1 113 31 167 169
301 202 196 206 216 82 420 -20 33 -36 64 -36 68 0 4 30 -13 66 -38 36 -25 70
-42 75 -39 5 3 9 17 9 32 0 38 39 117 113 230 66 100 97 166 97 205 0 12 7 33
16 46 l16 23 183 -7 c149 -6 184 -5 193 6 6 8 22 27 34 42 17 20 43 34 92 47
81 23 113 49 122 99 11 65 15 73 57 92 79 36 170 15 203 -47 23 -43 34 -43 35
-1 0 17 4 40 8 51 6 16 12 11 44 -33 20 -28 42 -51 48 -51 20 0 4 91 -26 153
-42 85 -179 231 -143 153 14 -32 4 -58 -19 -49 -42 15 -98 71 -164 164 -126
178 -216 262 -300 277 -65 12 -118 53 -293 221 -203 195 -240 212 -267 121
-21 -71 -50 -64 -240 55 -213 134 -286 161 -406 152 -93 -7 -113 -2 -113 30 0
16 -12 35 -31 52 -81 67 -98 89 -113 141 -18 60 -21 204 -6 245 11 29 15 29
78 4 25 -10 37 -11 51 -2 24 15 41 -1 41 -38 0 -38 15 -75 33 -82 8 -3 43 1
77 9 34 8 66 12 71 8 32 -19 -18 -106 -86 -150 -62 -39 -76 -59 -64 -91 10
-28 51 -49 114 -58 69 -10 218 -66 357 -136 145 -73 187 -81 221 -46 41 40 49
87 26 165 -10 37 -19 91 -19 120 0 62 -14 92 -85 187 -113 152 -304 329 -366
342 -16 3 -29 9 -29 14 0 22 136 61 213 60 50 0 74 -12 181 -87 26 -19 60 -34
73 -34 17 0 38 -14 64 -42 21 -24 54 -60 73 -80 21 -24 43 -38 58 -38 13 0 34
-7 47 -16 19 -14 22 -23 18 -50 -8 -49 6 -88 52 -143 49 -59 65 -95 51 -121
-14 -27 -14 -28 29 -26 49 1 117 -43 243 -157 238 -215 456 -357 547 -357 l34
0 -6 53 c-3 28 -22 106 -43 172 -77 249 -50 450 66 494 16 6 44 16 60 22 37
14 40 46 8 98 -45 74 -81 112 -131 136 -56 26 -112 65 -320 223 -295 223 -630
394 -742 378 -33 -5 -47 -2 -67 13 -38 30 -42 58 -10 79 50 32 811 18 1079
-20 73 -11 87 -10 118 5 51 24 43 47 -25 74 -92 36 -281 62 -635 89 -236 18
-1194 27 -1473 14z m777 -131 c48 -17 37 -29 -28 -29 -63 0 -84 12 -54 29 23
13 43 13 82 0z m-789 -264 c80 -81 128 -100 293 -120 137 -16 215 -34 282 -66
70 -33 58 -51 -42 -65 -58 -9 -98 -21 -136 -43 -30 -17 -61 -31 -68 -31 -8 0
-64 25 -125 56 -95 48 -118 56 -170 57 -32 0 -69 -3 -81 -7 -16 -5 -28 -1 -42
13 -19 19 -21 33 -21 124 0 77 4 108 16 125 8 12 18 22 22 22 4 0 37 -29 72
-65z m-658 -219 c12 -17 9 -74 -4 -82 -14 -9 -68 50 -68 75 0 11 6 22 13 24
16 7 50 -3 59 -17z m-214 -18 c7 -7 12 -34 12 -60 0 -59 -14 -62 -83 -18 -55
35 -59 56 -14 75 40 18 69 19 85 3z m-450 -42 c68 -34 149 -49 203 -37 24 5
45 8 47 6 8 -7 -119 -86 -148 -92 -29 -5 -37 0 -96 60 -56 58 -76 87 -59 87 3
0 27 -11 53 -24z m926 -3 c-20 -40 -9 -126 26 -201 18 -40 30 -76 26 -80 -4
-4 -43 30 -87 75 -100 104 -103 123 -28 182 56 44 76 52 63 24z m-441 -158
c108 -25 197 -55 197 -67 0 -15 -129 -4 -197 17 -29 9 -65 27 -80 40 -27 23
-27 24 -6 25 12 0 51 -7 86 -15z m655 -87 c28 -28 -5 -118 -44 -118 -31 0 -37
75 -9 120 8 14 38 13 53 -2z m-593 -118 c0 -17 -112 -77 -123 -66 -4 4 12 25
36 47 43 41 87 50 87 19z m-411 -46 c34 -13 2 -24 -69 -24 -82 0 -115 7 -93
21 15 10 139 12 162 3z m-146 -286 c10 -10 -9 -33 -85 -110 -54 -54 -101 -98
-105 -98 -4 0 0 16 8 35 21 52 18 92 -9 110 -35 23 -81 9 -154 -46 -73 -55
-82 -52 -20 8 44 43 104 78 172 99 52 17 177 18 193 2z m1220 -64 c62 -21 85
-24 134 -19 l58 7 15 -34 c18 -45 31 -54 82 -63 70 -11 95 -57 68 -127 -5 -12
12 -35 63 -84 84 -79 110 -132 122 -246 10 -105 23 -119 119 -126 39 -2 71 -8
71 -12 0 -5 -21 -21 -47 -36 -51 -29 -132 -38 -182 -20 -24 8 -24 8 -17 -43 5
-41 4 -53 -8 -57 -8 -3 -66 6 -128 20 -201 45 -300 46 -367 5 l-34 -21 71 -66
c55 -52 72 -74 72 -95 0 -20 -5 -27 -20 -27 -15 0 -20 7 -20 28 0 44 -11 54
-46 40 -28 -10 -37 -8 -86 20 -67 39 -83 40 -104 7 -45 -69 -150 19 -153 128
-2 68 71 127 156 127 44 0 66 -18 77 -62 4 -18 15 -30 31 -34 38 -10 59 2 50
29 -13 41 -7 71 20 94 31 28 50 30 40 6 -4 -10 -10 -30 -12 -45 -4 -23 -1 -28
22 -34 56 -14 141 32 133 72 -2 10 -19 27 -38 38 -35 21 -104 25 -236 16 -56
-4 -100 20 -201 109 -119 106 -165 140 -186 141 -38 0 -33 65 8 106 17 17 31
23 48 19 31 -8 85 33 182 139 64 69 137 126 164 126 3 0 38 -12 79 -26z m-801
-40 c3 -8 1 -26 -5 -40 -9 -19 -19 -24 -47 -24 -49 0 -58 26 -19 57 34 27 62
30 71 7z m-267 -81 c0 -5 -14 -17 -31 -28 -44 -29 -55 -52 -33 -76 26 -29 58
-23 109 21 45 39 87 51 100 30 3 -6 1 -26 -6 -45 -11 -30 -11 -37 6 -55 33
-37 64 -22 99 47 37 73 107 82 125 17 15 -53 -2 -89 -49 -108 -28 -11 -38 -20
-34 -31 13 -33 55 -16 113 45 58 60 81 73 81 45 0 -34 -37 -85 -141 -191 -68
-69 -109 -120 -109 -132 0 -12 15 -33 35 -49 57 -46 48 -53 -69 -53 -58 0
-107 4 -110 8 -3 5 8 22 24 37 17 16 30 34 30 41 0 19 -88 94 -110 94 -12 0
-26 -12 -35 -30 -19 -37 -43 -38 -127 -6 -73 28 -178 76 -178 81 0 2 50 34
110 70 61 36 110 68 110 70 0 2 -28 -3 -62 -11 -35 -8 -79 -14 -98 -12 -33 3
-35 5 -32 36 3 29 0 33 -27 38 -17 4 -31 10 -31 15 0 21 111 86 205 120 50 18
135 25 135 12z m2148 -322 c2 -6 -18 -34 -46 -61 -51 -51 -82 -64 -82 -32 0
32 45 84 90 104 19 8 33 5 38 -11z m-1553 -34 c45 -26 52 -51 15 -55 -30 -3
-84 28 -100 57 -10 19 -8 21 17 21 15 0 46 -11 68 -23z m1195 -397 c24 -24 24
-29 4 -58 -20 -29 -55 -28 -93 4 -29 24 -39 52 -24 67 15 16 93 7 113 -13z
m185 -11 c32 -38 29 -63 -7 -67 -34 -4 -63 36 -54 73 9 34 29 32 61 -6z m512
-68 c23 -11 58 -31 78 -44 47 -32 33 -37 -96 -37 -140 0 -171 21 -108 74 36
31 69 32 126 7z m273 -38 c0 -49 11 -55 86 -51 64 3 69 2 66 -17 -3 -24 -123
-265 -132 -265 -13 0 -79 168 -86 217 -5 42 -2 60 16 97 25 52 50 61 50 19z
m-1636 -127 c49 -34 91 -67 94 -74 3 -11 -33 -13 -196 -10 -130 2 -205 7 -212
14 -14 14 77 99 133 124 52 24 78 16 181 -54z m1442 -180 c18 -14 18 -15 -9
-21 -27 -7 -94 -1 -104 9 -26 25 79 36 113 12z"/>
<path d="M5294 10835 c-8 -21 17 -48 90 -95 68 -45 110 -57 131 -40 55 46 -38
123 -173 144 -33 5 -44 3 -48 -9z"/>
<path d="M6036 10689 c-32 -37 -37 -103 -8 -97 18 3 62 80 62 110 0 27 -25 21
-54 -13z"/>
<path d="M4556 10892 c-8 -14 42 -81 74 -97 38 -19 76 -19 84 1 8 20 -33 60
-87 84 -46 22 -63 24 -71 12z"/>
<path d="M8404 11299 c-91 -12 -181 -49 -169 -69 4 -6 19 -10 34 -10 36 0 54
-21 45 -54 l-6 -26 68 6 c73 6 82 4 213 -51 114 -48 251 -32 251 29 0 86 -273
196 -436 175z"/>
<path d="M1574 10520 c-48 -15 -124 -71 -147 -109 -21 -34 -21 -35 -2 -27 51
19 71 18 103 -9 40 -34 79 -29 149 18 60 40 76 78 46 109 -25 24 -99 33 -149
18z"/>
<path d="M11276 10502 c-3 -5 1 -30 9 -57 21 -68 21 -69 -27 -60 -84 14 -103
12 -100 -10 10 -76 7 -87 -37 -124 -34 -29 -43 -44 -48 -79 -10 -76 44 -172
98 -172 30 0 77 48 96 98 l18 47 7 -40 c4 -22 7 -59 7 -82 1 -23 6 -66 12 -95
10 -46 20 -61 83 -121 73 -70 72 -77 -12 -46 -30 11 -72 11 -72 1 0 -5 41 -67
91 -138 98 -140 154 -245 165 -310 7 -44 -7 -84 -29 -84 -7 0 -50 18 -95 40
-146 70 -197 76 -222 23 -7 -16 -16 -91 -21 -178 -4 -82 -17 -204 -28 -271
-35 -201 -31 -216 61 -213 71 3 96 -12 103 -59 14 -81 17 -92 30 -92 8 0 43
20 79 45 36 25 66 42 66 39 0 -3 -16 -26 -35 -51 -40 -52 -54 -91 -36 -102 7
-5 2 -20 -17 -48 -15 -22 -42 -62 -59 -89 -21 -30 -33 -60 -33 -81 0 -26 -9
-42 -42 -74 -79 -77 -202 -151 -270 -163 -42 -8 -52 -21 -62 -81 -9 -54 -19
-81 -82 -215 -77 -164 -94 -230 -104 -394 -7 -124 -10 -141 -29 -155 -38 -29
-58 -250 -42 -478 10 -150 22 -183 68 -195 42 -11 73 -49 133 -166 96 -187
219 -314 337 -348 57 -17 58 -16 140 11 74 25 91 27 170 20 103 -7 136 2 232
64 75 48 135 67 171 54 24 -8 33 -25 45 -85 7 -35 43 -54 117 -63 78 -10 83
-17 72 -123 -5 -48 -9 -166 -9 -262 1 -149 5 -194 28 -305 47 -231 46 -264
-12 -388 -63 -134 -96 -319 -146 -820 -42 -407 -56 -517 -87 -644 -12 -51 -18
-96 -14 -100 12 -12 68 58 118 149 149 267 210 349 300 394 112 57 188 261
208 562 13 194 29 303 85 583 108 537 139 835 139 1329 0 413 -23 622 -144
1325 -61 352 -55 330 -113 391 -47 48 -99 75 -114 60 -3 -3 2 -33 11 -67 16
-56 15 -87 -2 -64 -33 46 -128 197 -170 271 -60 105 -68 137 -35 142 36 5 93
-28 168 -99 86 -81 113 -97 122 -73 15 41 -66 282 -205 604 -210 491 -379 816
-439 843 -13 6 -34 34 -49 66 -70 149 -96 196 -185 331 -99 148 -201 271 -214
258 -12 -12 17 -76 96 -220 85 -153 94 -195 59 -276 -30 -70 -50 -86 -43 -34
8 56 -18 136 -97 302 -92 196 -103 230 -104 326 -1 66 -5 86 -20 103 -20 22
-32 26 -40 13z m671 -1557 c124 -147 273 -499 224 -529 -15 -10 -31 35 -31 89
0 63 -15 68 -246 85 -130 9 -172 23 -200 66 -38 57 11 200 97 286 39 39 55 48
83 48 29 0 41 -7 73 -45z m361 -460 c36 -30 60 -81 44 -97 -32 -32 -92 28 -92
92 0 36 9 38 48 5z"/>
<path d="M1476 9931 c-21 -23 -18 -65 6 -69 9 -2 31 11 50 27 32 30 32 32 14
46 -27 20 -49 19 -70 -4z"/>
<path d="M954 9683 c-11 -18 -18 -47 -19 -78 0 -47 2 -50 25 -50 36 0 72 57
68 110 -3 35 -6 40 -29 43 -19 2 -31 -4 -45 -25z"/>
<path d="M1176 9643 c-46 -30 -45 -57 2 -61 41 -4 62 12 62 48 0 39 -21 43
-64 13z"/>
<path d="M11441 9375 c-37 -32 -39 -42 -6 -57 35 -16 77 13 73 50 -4 36 -29
39 -67 7z"/>
<path d="M686 9250 c-66 -74 -233 -451 -301 -685 -15 -49 -33 -132 -41 -184
-14 -91 -24 -116 -53 -135 -57 -36 -154 -461 -215 -946 -41 -327 -50 -445 -50
-690 -1 -205 1 -240 17 -272 22 -48 62 -53 78 -10 6 15 15 172 20 372 9 358
21 471 58 554 26 59 56 79 110 70 52 -8 77 11 86 66 9 52 -9 111 -45 145 -39
37 -49 75 -56 210 -13 230 44 505 105 505 22 0 47 -47 57 -108 3 -23 12 -49
19 -58 11 -15 14 -13 37 17 44 57 117 209 148 305 62 194 69 407 14 428 -23 9
-53 -34 -59 -83 -23 -178 -44 -247 -100 -323 -46 -63 -65 -63 -65 0 0 125 90
332 196 452 99 112 106 132 89 254 -8 55 -7 59 11 54 49 -14 49 -14 46 16 -5
44 -30 86 -51 86 -10 0 -35 -18 -55 -40z"/>
<path d="M11315 8386 c-36 -55 22 -77 70 -26 25 26 27 32 15 40 -28 18 -69 11
-85 -14z"/>
<path d="M6170 7851 c-65 -20 -160 -89 -160 -117 0 -21 37 -36 96 -36 55 -1
89 15 80 38 -9 23 25 39 84 39 70 0 93 -15 79 -51 -14 -39 -11 -44 22 -32 44
15 100 3 218 -48 134 -59 184 -74 247 -74 114 0 80 50 -86 129 -275 130 -478
183 -580 152z"/>
<path d="M7246 7440 l-36 -51 -59 2 c-66 2 -81 -4 -81 -31 0 -46 69 -51 365
-25 200 18 245 29 245 60 0 9 -15 24 -32 35 -27 16 -51 20 -128 20 -68 1 -111
6 -150 20 -30 11 -62 19 -72 20 -9 0 -32 -23 -52 -50z"/>
<path d="M6742 7364 c-35 -35 -35 -37 -17 -50 19 -14 102 -19 143 -8 30 9 28
26 -10 63 -42 41 -71 40 -116 -5z"/>
<path d="M7805 7369 c-57 -50 -42 -69 55 -69 57 0 90 9 90 24 0 20 -65 76 -88
76 -12 0 -37 -14 -57 -31z"/>
<path d="M404 7062 c-46 -30 -53 -208 -14 -350 27 -98 48 -130 93 -134 l32 -3
-3 -85 c-3 -102 2 -127 28 -135 49 -16 150 82 150 145 0 40 -11 58 -98 155
-92 103 -142 215 -142 316 0 49 -14 99 -27 99 -5 0 -13 -4 -19 -8z"/>
<path d="M417 6483 c-47 -53 -85 -189 -60 -214 16 -16 50 5 69 43 20 38 31
148 17 172 -9 16 -10 15 -26 -1z"/>
<path d="M670 6361 c-5 -11 -10 -29 -10 -41 0 -32 -17 -58 -50 -75 -17 -9 -30
-22 -30 -30 0 -51 97 -185 134 -185 59 0 67 277 10 335 -21 20 -41 19 -54 -4z"/>
<path d="M9 6198 c-14 -26 -8 -124 26 -406 40 -327 81 -475 121 -441 18 15 17
72 -1 174 -7 44 -25 172 -40 285 -29 232 -40 295 -61 363 -17 52 -27 58 -45
25z"/>
<path d="M346 6091 c-88 -172 -129 -337 -129 -516 0 -182 26 -230 127 -237 61
-4 76 13 109 129 13 46 26 85 29 88 3 3 8 -54 12 -127 11 -223 32 -328 66
-328 6 0 28 16 50 36 l39 36 21 -34 c11 -18 20 -36 20 -40 0 -5 5 -8 11 -8 21
0 3 111 -30 184 -33 74 -40 126 -17 145 19 16 45 2 71 -38 22 -35 30 -38 39
-16 17 45 -49 110 -155 151 l-74 29 80 6 c81 6 120 19 142 48 18 23 16 38 -8
62 -19 19 -28 20 -108 14 -101 -8 -136 3 -169 57 -28 47 -40 96 -52 229 -18
189 -32 214 -74 130z"/>
<path d="M2990 6056 c0 -31 58 -83 139 -126 69 -37 117 -88 126 -134 11 -56
16 -66 36 -76 48 -26 81 38 59 115 -19 67 -99 137 -245 213 -75 40 -115 42
-115 8z"/>
<path d="M870 5698 c-34 -56 -38 -201 -9 -309 10 -39 33 -57 46 -36 10 15 17
319 9 353 -9 33 -23 30 -46 -8z"/>
<path d="M1038 5523 c-25 -29 -36 -55 -43 -108 -3 -27 -8 -60 -10 -71 -6 -27
-61 -54 -108 -54 -107 0 -117 -63 -14 -91 56 -15 175 -14 194 3 11 9 14 24 9
61 -8 57 4 77 44 77 38 0 54 -22 47 -66 -11 -69 19 -100 204 -204 105 -59 229
-186 229 -233 0 -10 -12 -19 -27 -23 -39 -9 -53 -23 -53 -50 0 -28 43 -54 92
-55 55 0 100 -22 118 -54 17 -31 63 -53 110 -54 39 -1 94 31 100 59 9 40 46
55 100 40 37 -10 63 -31 147 -115 76 -78 117 -110 165 -133 79 -38 99 -44 117
-33 25 16 -7 68 -111 177 -126 132 -155 197 -108 239 20 18 37 18 152 -1 53
-9 105 12 161 65 114 106 121 231 13 231 -43 0 -48 -7 -30 -41 13 -26 13 -32
-1 -59 -19 -37 -73 -73 -143 -96 -103 -33 -228 0 -322 83 -123 110 -449 283
-547 291 -47 4 -60 1 -104 -27 -59 -36 -87 -39 -123 -10 -40 32 -51 58 -31 73
16 11 16 15 2 43 -19 36 -71 82 -95 84 -9 1 -30 2 -47 3 -24 1 -31 7 -38 34
-11 36 -26 41 -49 15z"/>
<path d="M1360 5415 c-12 -31 -4 -105 11 -105 21 0 30 103 11 122 -8 8 -14 4
-22 -17z"/>
<path d="M5842 5343 c-7 -3 -20 -19 -28 -36 -16 -29 -16 -32 6 -49 45 -36 120
-17 120 31 0 46 -49 74 -98 54z"/>
<path d="M201 5244 c-75 -62 -8 -173 189 -314 54 -38 127 -102 163 -141 58
-64 68 -71 82 -59 23 19 75 111 75 132 0 26 -44 54 -118 77 -98 30 -116 45
-108 92 l6 38 -33 -6 c-75 -12 -194 99 -185 172 3 31 1 35 -18 35 -12 0 -36
-12 -53 -26z"/>
<path d="M1271 5011 c-16 -16 -20 -28 -15 -49 8 -33 43 -92 54 -92 36 0 39
124 3 147 -19 13 -24 12 -42 -6z"/>
<path d="M2750 4893 c1 -59 66 -139 137 -168 39 -17 139 -20 148 -6 7 12 -96
99 -179 153 -64 41 -106 50 -106 21z"/>
<path d="M845 4881 c-69 -31 -122 -112 -98 -150 11 -17 62 -26 98 -17 18 5 28
22 48 88 33 106 29 114 -48 79z"/>
<path d="M1118 4877 c-35 -28 -36 -53 -3 -61 33 -8 63 8 71 39 12 49 -22 60
-68 22z"/>
<path d="M3140 4666 c-51 -34 -76 -39 -131 -26 -56 14 -64 11 -54 -20 9 -28
62 -50 117 -50 44 1 165 23 174 33 12 12 -40 87 -60 87 -6 0 -27 -11 -46 -24z"/>
<path d="M1148 4573 c-18 -21 -38 -86 -38 -125 0 -50 -30 -68 -116 -68 -92 0
-111 -9 -119 -58 -11 -63 -16 -73 -43 -85 -38 -17 -42 -26 -36 -82 7 -61 -12
-90 -92 -141 -94 -60 -87 -96 98 -495 208 -447 270 -525 456 -569 59 -14 66
-11 67 28 0 26 2 27 51 27 99 -1 255 -104 371 -245 99 -120 175 -200 189 -200
20 0 133 -115 316 -320 227 -256 289 -309 313 -269 20 32 -30 101 -127 175
-32 25 -58 49 -58 54 0 5 38 21 84 35 93 28 141 64 151 111 18 92 30 127 70
205 55 108 70 185 62 334 -6 106 -32 226 -62 284 -7 15 -32 49 -54 76 -23 28
-51 75 -62 105 -23 63 -69 126 -166 231 -143 155 -180 215 -262 418 -51 125
-83 181 -105 181 -19 0 -52 67 -79 162 -36 127 -69 170 -105 134 -15 -15 -17
-38 -14 -176 1 -88 0 -160 -3 -160 -4 0 -57 26 -118 57 -127 65 -182 110 -208
170 -21 48 -66 76 -185 111 -78 24 -121 52 -134 88 -11 29 -22 30 -42 7z
m1482 -1463 c21 -41 27 -90 11 -90 -13 0 -57 59 -65 87 -17 55 26 58 54 3z"/>
<path d="M3273 4538 c-40 -28 -66 -75 -62 -108 4 -23 8 -25 44 -21 89 8 89 8
104 -26 14 -31 45 -52 58 -39 21 21 -15 128 -61 184 -33 38 -41 39 -83 10z"/>
<path d="M3806 3944 c-15 -38 4 -111 41 -154 20 -25 32 -30 57 -28 23 2 32 8
34 26 4 27 -38 122 -67 151 -25 25 -56 27 -65 5z"/>
<path d="M4923 3734 c-8 -23 8 -47 41 -58 21 -8 32 -6 54 11 15 11 27 29 27
39 0 16 -9 19 -58 22 -46 2 -58 0 -64 -14z"/>
<path d="M4750 3671 c-29 -55 10 -124 69 -124 39 0 61 19 61 52 -1 64 -103
121 -130 72z"/>
<path d="M3580 3471 c-7 -14 -7 -28 0 -47 21 -53 97 -128 143 -139 23 -6 27
-4 27 15 0 37 -41 109 -87 151 -47 43 -67 48 -83 20z"/>
<path d="M3658 2725 c-9 -20 -9 -47 0 -114 20 -152 13 -181 -49 -181 -41 0
-36 -14 16 -50 25 -17 45 -35 45 -39 0 -5 -23 -11 -51 -15 -141 -19 -489 -205
-489 -261 0 -23 51 -55 86 -55 59 0 164 48 298 137 72 47 150 94 174 104 41
18 118 67 215 137 l48 35 -79 81 c-89 92 -118 131 -134 178 -22 67 -60 87 -80
43z"/>
<path d="M7955 1098 c-42 -15 -75 -47 -75 -74 0 -25 52 -74 79 -74 28 0 82 41
119 90 32 41 33 45 16 57 -21 15 -96 16 -139 1z"/>
<path d="M9205 694 c-44 -20 -107 -48 -139 -61 -62 -26 -184 -52 -249 -53 -61
0 -183 -28 -307 -70 -272 -92 -560 -136 -839 -128 -126 3 -142 6 -190 31 -81
42 -117 44 -213 12 -46 -15 -89 -30 -96 -34 -9 -5 28 -36 107 -92 l120 -84
-172 -6 c-124 -4 -185 -10 -217 -22 -25 -9 -55 -17 -67 -17 -20 0 -23 5 -23
39 0 62 -14 67 -133 42 -217 -45 -305 -39 -522 34 -153 52 -195 56 -236 21
-47 -40 -114 -42 -369 -16 -124 13 -261 24 -306 23 -142 -2 -355 -54 -379 -93
-32 -51 707 -183 1186 -211 610 -36 1456 40 2014 183 338 86 975 338 1173 464
46 30 51 37 42 54 -18 33 -90 27 -185 -16z"/>
</g>
</svg>
