<?xml version="1.0" standalone="no"?>
<!DOCTYPE svg PUBLIC "-//W3C//DTD SVG 20010904//EN"
 "http://www.w3.org/TR/2001/REC-SVG-20010904/DTD/svg10.dtd">
<svg version="1.0" xmlns="http://www.w3.org/2000/svg"
 width="801.000000pt" height="1280.000000pt" viewBox="0 0 801.000000 1280.000000"
 preserveAspectRatio="xMidYMid meet">
<metadata>
Created by potrace 1.15, written by Peter Selinger 2001-2017
</metadata>
<g transform="translate(0.000000,1280.000000) scale(0.100000,-0.100000)"
fill="#000000" stroke="none">
<path d="M6040 12763 c-20 -23 -57 -80 -83 -126 -62 -110 -87 -141 -173 -213
-151 -126 -283 -293 -412 -519 -61 -109 -98 -145 -177 -174 -33 -13 -89 -36
-125 -51 -36 -16 -94 -40 -130 -55 -36 -15 -107 -47 -159 -72 -52 -24 -107
-47 -122 -50 -24 -4 -28 -1 -39 31 -14 42 -9 94 26 304 28 169 50 350 60 484
6 94 6 97 -19 122 -14 14 -31 26 -37 26 -6 0 -30 -18 -54 -40 -29 -27 -62 -77
-104 -157 -64 -127 -195 -416 -237 -529 -30 -80 -142 -307 -204 -412 -44 -75
-89 -115 -126 -110 -22 3 -23 17 -10 101 6 38 5 47 -7 47 -21 0 -43 -28 -67
-83 -23 -53 -47 -77 -103 -103 -63 -29 -82 -16 -113 76 -42 127 -121 266 -193
343 -70 73 -121 48 -327 -164 -148 -153 -206 -227 -273 -349 -65 -119 -98
-207 -122 -320 -12 -58 -30 -123 -41 -145 -21 -45 -149 -179 -192 -201 -37
-20 -75 -9 -265 77 -207 94 -226 98 -286 70 -122 -59 -203 -177 -275 -398 -47
-143 -65 -248 -57 -325 5 -52 3 -59 -17 -73 -12 -8 -84 -56 -160 -106 -155
-101 -226 -162 -265 -228 -22 -37 -26 -57 -27 -121 0 -65 5 -85 34 -148 32
-72 33 -74 15 -94 -25 -28 -111 -85 -214 -143 -115 -64 -162 -105 -204 -173
-46 -76 -52 -103 -32 -152 26 -66 21 -98 -20 -134 -85 -72 -128 -122 -155
-180 -41 -87 -39 -109 22 -183 28 -35 49 -69 46 -76 -3 -8 -27 -27 -54 -42
-82 -47 -114 -76 -154 -138 -44 -69 -47 -91 -19 -172 29 -85 27 -99 -22 -128
-53 -31 -237 -215 -286 -287 -33 -46 -37 -59 -37 -114 0 -58 3 -67 43 -119 23
-31 42 -64 42 -73 0 -9 -30 -70 -66 -137 l-65 -121 27 -65 c47 -110 56 -113
207 -84 92 17 109 15 131 -20 7 -12 4 -38 -11 -97 l-21 -81 20 -72 c22 -81 26
-144 14 -263 -11 -107 7 -165 70 -226 54 -51 77 -92 98 -176 16 -58 15 -65 -4
-134 -27 -96 -37 -237 -21 -277 7 -16 40 -53 72 -81 44 -38 67 -69 88 -114 17
-37 46 -79 75 -106 83 -78 110 -106 141 -144 58 -72 154 -68 339 15 60 27 120
49 132 49 l23 0 -20 -67 c-10 -38 -19 -96 -19 -131 0 -40 -8 -83 -22 -120 -11
-31 -23 -80 -25 -107 -5 -58 11 -81 62 -87 27 -3 30 -8 37 -48 11 -63 35 -80
113 -80 108 0 117 5 191 92 36 43 79 85 94 93 16 8 48 45 73 82 62 93 176 225
190 220 15 -5 21 -40 13 -81 -3 -18 -28 -66 -54 -107 -26 -42 -69 -125 -97
-185 -27 -60 -72 -148 -101 -195 -28 -47 -61 -111 -72 -142 -12 -31 -53 -118
-91 -194 -68 -138 -90 -163 -137 -163 -34 0 -139 -65 -197 -123 -105 -104
-157 -232 -166 -413 -8 -148 -13 -158 -148 -263 -109 -85 -129 -112 -177 -236
-44 -116 -49 -160 -33 -269 10 -59 11 -101 5 -122 -5 -18 -58 -95 -119 -171
-128 -161 -182 -261 -197 -369 -6 -46 -27 -111 -57 -180 -56 -129 -69 -172
-85 -284 -14 -102 -34 -216 -55 -326 -23 -120 -23 -169 0 -194 19 -21 85 -43
163 -55 l42 -7 0 -161 c0 -238 19 -327 74 -356 47 -26 96 27 110 119 11 72 28
90 86 90 62 0 75 -14 84 -85 3 -31 13 -70 22 -86 19 -38 70 -69 112 -69 18 0
55 -11 82 -25 27 -14 58 -25 68 -25 35 0 99 54 227 188 75 78 134 132 146 132
14 0 31 -26 68 -104 52 -109 85 -146 131 -146 41 0 74 32 136 133 31 51 67
109 81 129 35 52 64 51 117 -6 56 -61 104 -65 161 -14 69 60 93 134 130 396
23 162 36 212 53 212 17 -1 42 -26 146 -151 119 -143 161 -179 210 -179 41 0
105 38 132 77 11 17 36 73 54 125 70 196 71 198 90 198 10 0 39 -9 65 -20 60
-26 77 -25 103 3 31 33 80 145 93 212 26 139 -7 268 -133 525 -83 168 -102
197 -203 321 -62 75 -145 183 -185 240 -41 57 -107 149 -148 204 -95 128 -132
203 -132 272 0 46 5 58 48 115 60 80 152 132 205 117 17 -5 48 -9 67 -9 53 0
98 -33 125 -93 14 -28 25 -57 25 -63 0 -18 43 -52 75 -60 40 -9 60 -27 101
-95 56 -94 179 -195 269 -222 28 -8 72 -25 99 -37 47 -21 50 -21 112 -6 35 9
83 16 107 16 24 0 69 5 98 10 30 6 98 13 153 15 123 6 170 28 208 102 l24 48
55 0 c40 0 70 -8 114 -30 80 -40 92 -65 75 -154 -26 -137 -25 -160 20 -318
l41 -148 -45 -80 c-52 -90 -61 -125 -51 -193 5 -38 15 -55 50 -88 46 -45 127
-81 191 -86 34 -3 39 0 42 20 2 14 -7 33 -27 53 -17 17 -31 37 -31 44 0 8 20
28 45 45 55 38 58 43 84 153 22 91 38 118 129 215 30 32 36 34 73 28 60 -10
96 -32 172 -105 l69 -66 91 -7 c51 -4 105 -10 121 -14 28 -7 29 -6 23 24 -4
17 -25 58 -47 90 -65 96 -50 146 50 159 32 5 48 1 70 -16 33 -24 52 -26 114
-9 53 14 71 4 80 -46 4 -19 13 -39 20 -45 32 -27 103 119 91 186 -4 24 -13 34
-37 42 -44 16 -110 73 -133 115 -13 25 -27 36 -42 36 -41 0 -72 19 -98 60 -33
52 -51 49 -84 -15 -18 -34 -34 -51 -51 -55 -18 -4 -26 -14 -30 -35 -5 -27 -10
-31 -40 -26 -6 0 -10 39 -10 92 0 50 -4 99 -10 109 -5 10 -26 24 -46 30 -30
10 -39 10 -51 -2 -12 -13 -11 -17 11 -32 14 -9 26 -23 26 -31 0 -19 -29 -19
-54 0 -11 8 -28 15 -38 15 -11 0 -23 13 -31 33 -8 17 -21 38 -30 46 -24 20
-21 29 13 36 22 5 35 17 48 43 l17 37 82 5 c79 5 85 7 121 43 34 33 43 37 89
37 64 0 91 10 137 50 53 47 50 81 -11 120 -26 17 -51 37 -56 45 -10 18 9 55
28 55 15 0 65 -60 65 -78 0 -17 34 -32 72 -32 32 0 98 -32 98 -47 0 -5 9 -14
21 -21 34 -22 49 0 46 67 l-2 56 56 30 c84 45 119 76 133 120 21 59 32 62 133
41 132 -29 154 -30 190 -7 18 11 45 44 62 73 78 141 95 155 147 121 23 -14 53
-19 157 -22 140 -3 174 4 207 47 39 48 22 167 -44 311 -85 187 -84 189 107
167 197 -22 204 -21 268 17 98 59 197 139 203 163 10 40 -17 86 -109 184 -141
151 -154 184 -78 196 63 9 345 -2 419 -16 52 -10 73 -9 183 13 69 15 131 33
140 41 14 15 14 19 -4 52 -56 105 -307 284 -516 368 -167 67 -354 157 -381
183 -16 15 -28 35 -28 45 0 38 64 33 255 -18 320 -87 441 -114 501 -114 45 0
132 28 155 51 29 29 24 48 -28 98 -61 58 -151 111 -383 227 -264 132 -407 186
-660 249 -119 30 -144 45 -117 72 26 26 375 31 542 8 66 -9 152 -21 190 -26
94 -13 254 -13 302 0 22 6 48 20 58 31 17 19 17 20 -12 47 -37 35 -171 101
-318 158 -60 24 -137 55 -170 70 -120 54 -289 95 -519 125 -105 13 -154 24
-167 36 -49 44 -11 59 216 84 55 7 116 16 135 22 46 14 97 52 121 91 17 29 17
33 3 49 -25 27 -220 94 -325 112 -37 7 -545 -21 -560 -30 -5 -3 -59 -13 -121
-24 -111 -18 -299 -64 -388 -93 -127 -43 -262 -78 -286 -75 -47 5 -50 27 -14
109 26 59 33 88 34 145 1 71 2 72 60 149 82 109 97 148 97 250 0 109 -18 293
-37 373 -18 83 -43 128 -129 242 -83 109 -150 175 -203 197 -69 29 -254 73
-308 73 -70 0 -206 -19 -221 -31 -6 -6 -56 -15 -110 -20 -56 -6 -116 -19 -139
-30 -22 -10 -48 -19 -58 -19 -9 0 -33 -8 -54 -19 -45 -22 -67 -28 -209 -51
-154 -26 -236 -47 -312 -81 -110 -50 -137 -38 -161 71 -19 91 -50 160 -117
264 -35 54 -77 126 -94 160 -30 64 -48 86 -269 334 -106 119 -150 177 -203
270 -89 156 -112 225 -131 397 -9 77 -28 221 -42 320 -21 145 -25 203 -21 300
7 162 31 296 68 372 42 88 139 215 191 251 114 78 189 104 493 172 570 128
1002 268 1240 403 294 166 381 226 591 407 66 57 179 143 253 192 162 108 204
140 299 232 69 66 159 182 149 192 -2 2 -61 -39 -131 -92 -146 -111 -291 -204
-316 -204 -36 0 -41 77 -9 144 11 25 50 78 85 118 70 79 71 81 77 178 3 49 21
107 72 240 101 263 166 461 163 495 l-3 29 -35 -41z m-916 -1312 c10 -16 -41
-68 -88 -89 -46 -22 -196 -52 -256 -52 -33 1 -34 2 -16 15 34 26 310 134 343
135 6 0 14 -4 17 -9z m343 -4761 c-8 -88 -24 -107 -94 -114 -188 -19 -398
-159 -478 -316 -14 -27 -35 -55 -47 -61 -13 -7 -42 -29 -65 -50 -47 -43 -63
-47 -87 -23 -20 19 -20 19 3 85 45 131 141 288 226 368 111 105 254 138 396
91 81 -27 99 -20 99 41 0 35 2 39 26 39 27 0 27 0 21 -60z"/>
</g>
</svg>
