<?xml version="1.0" standalone="no"?>
<!DOCTYPE svg PUBLIC "-//W3C//DTD SVG 20010904//EN"
 "http://www.w3.org/TR/2001/REC-SVG-20010904/DTD/svg10.dtd">
<svg version="1.0" xmlns="http://www.w3.org/2000/svg"
 width="1280.000000pt" height="814.000000pt" viewBox="0 0 1280.000000 814.000000"
 preserveAspectRatio="xMidYMid meet">
<metadata>
Created by potrace 1.15, written by Peter Selinger 2001-2017
</metadata>
<g transform="translate(0.000000,814.000000) scale(0.100000,-0.100000)"
fill="#ffffff" stroke="none">
<path d="M4155 8124 c-1521 -123 -2390 -238 -3095 -410 -353 -87 -673 -210
-823 -318 -193 -137 -270 -297 -222 -462 54 -190 205 -312 565 -457 289 -117
667 -228 1610 -472 1200 -310 1696 -488 1873 -671 44 -46 46 -66 10 -100 -111
-103 -339 -190 -1068 -409 -639 -192 -864 -270 -1090 -381 -249 -121 -400
-243 -466 -379 -29 -58 -35 -83 -38 -152 -6 -141 46 -251 184 -388 200 -200
507 -342 1058 -490 230 -61 298 -77 892 -210 1088 -244 1592 -399 2070 -640
458 -230 744 -464 992 -811 161 -227 259 -328 464 -482 354 -265 909 -504
1533 -658 733 -182 1568 -264 2286 -224 1087 61 1762 351 1891 815 23 82 18
256 -10 345 -65 211 -200 410 -422 625 -491 475 -1357 866 -2649 1198 -466
120 -863 206 -1875 407 -1258 250 -1610 338 -1857 461 -133 67 -193 139 -167
200 17 44 83 93 190 143 134 63 254 103 626 207 431 120 535 152 673 205 348
136 509 289 510 485 2 423 -618 732 -2190 1089 -381 87 -510 114 -1480 310
-952 192 -1095 223 -1400 299 -281 71 -514 145 -625 200 -90 45 -103 54 -128
93 -108 169 288 394 1018 576 338 85 831 177 1235 232 192 26 216 34 241 74
49 81 -10 168 -113 165 -24 -1 -115 -7 -203 -15z"/>
</g>
</svg>
